<svg width="0" height="0" class="hidden">
  <symbol role="img" xmlns="http://www.w3.org/2000/svg" viewBox="0 0 24 24" id="facebook">
    <title>Facebook</title>
    <path d="M24 12.073c0-6.627-5.373-12-12-12s-12 5.373-12 12c0 5.99 4.388 10.954 10.125 11.854v-8.385H7.078v-3.47h3.047V9.43c0-3.007 1.792-4.669 4.533-4.669 1.312 0 2.686.235 2.686.235v2.953H15.83c-1.491 0-1.956.925-1.956 1.874v2.25h3.328l-.532 3.47h-2.796v8.385C19.612 23.027 24 18.062 24 12.073z"></path>
  </symbol>
  <symbol role="img" xmlns="http://www.w3.org/2000/svg" viewBox="0 0 24 24" id="telegram">
    <title>Telegram</title>
    <path d="M11.944 0A12 12 0 0 0 0 12a12 12 0 0 0 12 12 12 12 0 0 0 12-12A12 12 0 0 0 12 0a12 12 0 0 0-.056 0zm4.962 7.224c.1-.002.321.023.465.14a.506.506 0 0 1 .171.325c.016.093.036.306.02.472-.18 1.898-.962 6.502-1.36 8.627-.168.9-.499 1.201-.82 1.23-.696.065-1.225-.46-1.9-.902-1.056-.693-1.653-1.124-2.678-1.8-1.185-.78-.417-1.21.258-1.91.177-.184 3.247-2.977 3.307-3.23.007-.032.014-.15-.056-.212s-.174-.041-.249-.024c-.106.024-1.793 1.14-5.061 3.345-.48.33-.913.49-1.302.48-.428-.008-1.252-.241-1.865-.44-.752-.245-1.349-.374-1.297-.789.027-.216.325-.437.893-.663 3.498-1.524 5.83-2.529 6.998-3.014 3.332-1.386 4.025-1.627 4.476-1.635z"></path>
  </symbol>
  <symbol role="img" xmlns="http://www.w3.org/2000/svg" viewBox="0 0 24 24" id="linkedin">
    <title>LinkedIn</title>
    <path d="M20.447 20.452h-3.554v-5.569c0-1.328-.027-3.037-1.852-3.037-1.853 0-2.136 1.445-2.136 2.939v5.667H9.351V9h3.414v1.561h.046c.477-.9 1.637-1.85 3.37-1.85 3.601 0 4.267 2.37 4.267 5.455v6.286zM5.337 7.433c-1.144 0-2.063-.926-2.063-2.065 0-1.138.92-2.063 2.063-2.063 1.14 0 2.064.925 2.064 2.063 0 1.139-.925 2.065-2.064 2.065zm1.782 13.019H3.555V9h3.564v11.452zM22.225 0H1.771C.792 0 0 .774 0 1.729v20.542C0 23.227.792 24 1.771 24h20.451C23.2 24 24 23.227 24 22.271V1.729C24 .774 23.2 0 22.222 0h.003z"></path>
  </symbol>
  <symbol xmlns="http://www.w3.org/2000/svg" viewBox="0 0 32 32" id="telephone">
    <path d="M7.309 2.656a1.346 1.346 0 0 0-.989-.52 1.341 1.341 0 0 0-1.043.395l-2.066 2.07c-.969.965-1.324 2.337-.902 3.54a35.185 35.185 0 0 0 8.336 13.214 35.151 35.151 0 0 0 13.218 8.336c1.2.422 2.57.067 3.54-.898l2.066-2.07a1.33 1.33 0 0 0 .394-1.043 1.345 1.345 0 0 0-.52-.985l-4.613-3.59a1.357 1.357 0 0 0-1.16-.242l-4.379 1.094a3.493 3.493 0 0 1-3.316-.918l-4.91-4.914a3.495 3.495 0 0 1-.922-3.316l1.098-4.38a1.346 1.346 0 0 0-.246-1.16zm-3.54-1.633a3.492 3.492 0 0 1 5.223.324l3.586 4.614c.66.844.89 1.945.633 2.988l-1.094 4.38c-.117.46.02.948.356 1.284l4.914 4.914c.336.336.824.473 1.289.356l4.375-1.094a3.487 3.487 0 0 1 2.988.633l4.613 3.586a3.49 3.49 0 0 1 .325 5.222l-2.067 2.067c-1.48 1.48-3.691 2.133-5.754 1.406a37.297 37.297 0 0 1-14.02-8.84 37.28 37.28 0 0 1-8.84-14.02C-.43 6.786.224 4.57 1.704 3.09zm0 0"></path>
  </symbol>
  <symbol xmlns="http://www.w3.org/2000/svg" viewBox="0 0 32 32" id="envelope">
    <path d="M29 4H3a3 3 0 0 0-3 3v18a3 3 0 0 0 3 3h26a3 3 0 0 0 3-3V7a3 3 0 0 0-3-3zm0 3v2.55c-1.402 1.141-3.637 2.915-8.41 6.657-1.055.828-3.14 2.816-4.59 2.793-1.45.023-3.535-1.965-4.59-2.793C6.637 12.465 4.402 10.691 3 9.551V7zM3 25V13.398c1.434 1.141 3.465 2.743 6.559 5.168C10.926 19.641 13.316 22.016 16 22c2.668.016 5.031-2.324 6.441-3.434 3.094-2.425 5.125-4.027 6.559-5.168V25zm0 0"></path>
  </symbol>
  <symbol xmlns="http://www.w3.org/2000/svg" viewBox="0 0 32 32" id="map">
    <path d="M16 15.332a3.333 3.333 0 1 1 .001-6.665A3.333 3.333 0 0 1 16 15.332m0-12.664A9.33 9.33 0 0 0 6.668 12C6.668 19 16 29.332 16 29.332S25.332 19 25.332 12A9.33 9.33 0 0 0 16 2.668zm0 0"></path>
  </symbol>
</svg>